<?xml version="1.0" encoding="utf-8"?>
<!-- Generator: Adobe Illustrator 24.0.0, SVG Export Plug-In . SVG Version: 6.00 Build 0)  -->
<svg version="1.1" xmlns="http://www.w3.org/2000/svg" xmlns:xlink="http://www.w3.org/1999/xlink" x="0px" y="0px"
	 viewBox="0 0 256 256" enable-background="new 0 0 256 256" xml:space="preserve">
<g id="Layer_1">
</g>
<g id="Layer_2">
</g>
<g id="Layer_3">
</g>
<g id="Layer_4">
</g>
<g id="Layer_5">
</g>
<g id="Layer_6">
</g>
<g id="Layer_7">
</g>
<g id="Layer_8">
</g>
<g id="Layer_9">
</g>
<g id="Layer_10">
</g>
<g id="Layer_11">
</g>
<g id="Layer_12">
</g>
<g id="Layer_13">
</g>
<g id="Layer_14">
</g>
<g id="Layer_15">
</g>
<g id="Layer_16">
</g>
<g id="Layer_17">
</g>
<g id="Layer_18">
	<g>
		<g>
			<g>
				<path fill="#DAE6F1" d="M143.413,2.5h-19.777c-2.304,0-4.172,1.868-4.172,4.172v6.237c0,2.304,1.868,4.172,4.172,4.172h19.777
					c2.304,0,4.172-1.868,4.172-4.172V6.672C147.585,4.368,145.717,2.5,143.413,2.5z"/>
			</g>
		</g>
		<g>
			<g>
				<path fill="#C7D7E5" d="M126.235,17.081v12.194c0.803-0.139,1.618-0.217,2.436-0.217h9.708c0.819,0,1.633,0.078,2.437,0.217
					V17.081H126.235z"/>
			</g>
		</g>
		<g>
			<g>
				<path fill="#5290DB" d="M167.905,41.18h-68.76c-3.174,0-5.747,2.573-5.747,5.747v12.693c0,3.174,2.573,5.747,5.747,5.747h68.76
					c3.174,0,5.747-2.573,5.747-5.747V46.927C173.651,43.753,171.079,41.18,167.905,41.18z"/>
			</g>
		</g>
		<g>
			<g>
				<path fill="#3A70BF" d="M143.588,30.038c-1.661-0.647-3.427-0.979-5.209-0.979h-9.708c-1.782,0-3.549,0.332-5.209,0.979
					L101.203,41.18h64.644L143.588,30.038z"/>
			</g>
		</g>
		<g>
			<g>
				<path fill="#3A70BF" d="M167.905,65.366h-68.76c-0.854,0-1.661-0.191-2.39-0.525v7.975c0,2.908,2.358,5.266,5.266,5.266h63.007
					c2.908,0,5.266-2.358,5.266-5.266v-7.975C169.566,65.175,168.759,65.366,167.905,65.366z"/>
			</g>
		</g>
		<g>
			<g>
				<path fill="#5290DB" d="M175.543,114.461H91.507c-2.075,2.471-3.287,5.6-3.287,8.938v119.606
					c0,5.797,4.699,10.496,10.496,10.496h69.618c5.797,0,10.496-4.699,10.496-10.496V123.398
					C178.83,120.061,177.619,116.931,175.543,114.461z"/>
			</g>
		</g>
		<g>
			<g>
				<path fill="#29589F" d="M159.562,91.027c0-4.797,1.501-9.256,4.048-12.945h-60.17c2.547,3.689,4.048,8.149,4.048,12.945v0
					c0,4.168-1.136,8.08-3.102,11.456h58.279C160.699,99.107,159.562,95.195,159.562,91.027L159.562,91.027z"/>
			</g>
		</g>
		<g>
			<g>
				<path fill="#3A70BF" d="M171.454,111.093c-3.651-2.018-6.693-5.009-8.789-8.61h-58.279c-2.097,3.601-5.139,6.591-8.789,8.61
					c-1.585,0.877-2.963,2.027-4.089,3.368h84.037C174.417,113.12,173.04,111.969,171.454,111.093z"/>
			</g>
		</g>
		<g>
			<g>
				
					<ellipse transform="matrix(0.9871 -0.1602 0.1602 0.9871 -27.3422 23.7314)" fill="#EDF4FC" cx="133.525" cy="181.458" rx="31.356" ry="31.356"/>
			</g>
		</g>
		<g>
			<g>
				<path fill="#70D6F9" d="M142.619,181.18l-6.942-13.451c-0.902-1.748-3.401-1.748-4.303,0l-6.942,13.451
					c-3.515,6.811,1.429,14.927,9.094,14.927S146.134,187.991,142.619,181.18z"/>
			</g>
		</g>
		<g>
			<g>
				<g>
					<g>
						<path d="M143.413,0h-19.776c-3.679,0-6.672,2.993-6.672,6.672v6.237c0,3.679,2.993,6.672,6.672,6.672h19.776
							c3.679,0,6.672-2.993,6.672-6.672V6.672C150.085,2.993,147.092,0,143.413,0z M145.085,12.909c0,0.922-0.75,1.672-1.672,1.672
							h-19.776c-0.922,0-1.672-0.75-1.672-1.672V6.672c0-0.922,0.75-1.672,1.672-1.672h19.776c0.922,0,1.672,0.75,1.672,1.672
							V12.909z"/>
					</g>
				</g>
			</g>
		</g>
		<g>
			<g>
				<path d="M140.815,15.344c-1.381,0-2.5,1.119-2.5,2.5v10.625c0,1.381,1.119,2.5,2.5,2.5s2.5-1.119,2.5-2.5V17.844
					C143.315,16.463,142.196,15.344,140.815,15.344z"/>
			</g>
		</g>
		<g>
			<g>
				<path d="M126.234,15.219c-1.381,0-2.5,1.119-2.5,2.5v10.75c0,1.381,1.119,2.5,2.5,2.5s2.5-1.119,2.5-2.5v-10.75
					C128.734,16.338,127.615,15.219,126.234,15.219z"/>
			</g>
		</g>
		<g>
			<g>
				<g>
					<g>
						<path d="M167.904,38.68H99.145c-4.547,0-8.247,3.7-8.247,8.247v12.692c0,4.547,3.699,8.247,8.247,8.247h68.759
							c4.548,0,8.247-3.699,8.247-8.247V46.927C176.151,42.379,172.452,38.68,167.904,38.68z M171.151,59.619
							c0,1.79-1.457,3.247-3.247,3.247H99.145c-1.79,0-3.247-1.457-3.247-3.247V46.927c0-1.791,1.457-3.247,3.247-3.247h68.759
							c1.79,0,3.247,1.457,3.247,3.247V59.619z"/>
					</g>
				</g>
			</g>
		</g>
		<g>
			<g>
				<path d="M166.161,38.542l-21.453-10.739c-0.069-0.035-0.14-0.066-0.211-0.094c-1.958-0.763-4.017-1.15-6.118-1.15h-9.708
					c-2.102,0-4.16,0.387-6.118,1.15c-0.072,0.028-0.142,0.059-0.211,0.094L100.78,38.596c-1.234,0.618-1.734,2.12-1.116,3.354
					c0.438,0.875,1.321,1.381,2.237,1.381c0.376,0,0.758-0.085,1.117-0.265l21.454-10.739c1.346-0.51,2.758-0.769,4.199-0.769h9.708
					c1.441,0,2.854,0.259,4.199,0.769l21.345,10.685c1.235,0.619,2.735,0.118,3.354-1.116
					C167.896,40.661,167.396,39.159,166.161,38.542z"/>
			</g>
		</g>
		<g>
			<g>
				<path d="M170.294,63.063c-1.381,0-2.5,1.119-2.5,2.5v7.252c0,1.525-1.24,2.766-2.766,2.766h-63.007
					c-1.525,0-2.766-1.241-2.766-2.766v-7.449c0-1.381-1.119-2.5-2.5-2.5s-2.5,1.119-2.5,2.5v7.449c0,4.282,3.483,7.766,7.766,7.766
					h63.007c4.282,0,7.766-3.484,7.766-7.766v-7.252C172.794,64.183,171.675,63.063,170.294,63.063z"/>
			</g>
		</g>
		<g>
			<g>
				<g>
					<g>
						<path d="M177.457,112.852c-0.476-0.565-1.176-0.892-1.914-0.892H91.507c-0.738,0-1.439,0.327-1.914,0.892
							c-2.497,2.972-3.873,6.718-3.873,10.546v119.605c0,7.166,5.83,12.996,12.996,12.996h69.618c7.166,0,12.996-5.83,12.996-12.996
							V123.398C181.33,119.57,179.954,115.824,177.457,112.852z M176.33,243.004c0,4.409-3.587,7.996-7.996,7.996H98.716
							c-4.409,0-7.996-3.587-7.996-7.996V123.398c0-2.286,0.711-4.534,2.022-6.438h81.565c1.311,1.904,2.022,4.152,2.022,6.438
							V243.004z"/>
					</g>
				</g>
			</g>
		</g>
		<g>
			<g>
				<path fill="#F5C84C" d="M197.325,27c-4.5-0.8-8-4.3-8.9-8.7c0-0.2-0.4-0.2-0.4,0c-0.9,4.4-4.4,7.9-8.9,8.7c-0.2,0-0.2,0.3,0,0.4
					c4.5,0.8,8,4.3,8.9,8.7c0,0.2,0.4,0.2,0.4,0c0.9-4.4,4.4-7.9,8.9-8.7C197.525,27.3,197.525,27,197.325,27z"/>
			</g>
		</g>
		<g>
			<g>
				<path fill="#FC657E" d="M83.428,69.07c-2.919-0.519-5.189-2.789-5.773-5.643c0-0.13-0.259-0.13-0.259,0
					c-0.584,2.854-2.854,5.124-5.773,5.643c-0.13,0-0.13,0.195,0,0.259c2.919,0.519,5.189,2.789,5.773,5.643
					c0,0.13,0.259,0.13,0.259,0c0.584-2.854,2.854-5.124,5.773-5.643C83.557,69.265,83.557,69.07,83.428,69.07z"/>
			</g>
		</g>
		<g>
			<g>
				<path fill="#70D6F9" d="M72.725,157.9h-2.3v-2.3c0-1.7-1.4-3.2-3.2-3.2c-1.8,0-3.2,1.4-3.2,3.2v2.3h-2.3c-1.7,0-3.2,1.4-3.2,3.2
					s1.4,3.2,3.2,3.2h2.3v2.3c0,1.7,1.4,3.2,3.2,3.2c1.8,0,3.2-1.4,3.2-3.2v-2.3h2.3c1.7,0,3.2-1.4,3.2-3.2
					S74.525,157.9,72.725,157.9z"/>
			</g>
		</g>
		<g>
			<g>
				<path fill="#87D147" d="M169.825,0c-1.878,0-3.4,1.522-3.4,3.4c0,1.878,1.522,3.4,3.4,3.4s3.4-1.522,3.4-3.4
					C173.225,1.522,171.703,0,169.825,0z"/>
			</g>
		</g>
		<g>
			<g>
				<path fill="#F5C84C" d="M72.325,185.5c-1.878,0-3.4,1.522-3.4,3.4c0,1.878,1.522,3.4,3.4,3.4s3.4-1.522,3.4-3.4
					C75.725,187.022,74.203,185.5,72.325,185.5z"/>
			</g>
		</g>
		<g>
			<g>
				<path d="M164.471,76.697c-1.164-0.74-2.709-0.399-3.451,0.768c-2.589,4.068-3.957,8.758-3.957,13.562
					c0,3.063,0.563,6.101,1.648,8.957h-50.372c1.085-2.856,1.649-5.893,1.649-8.957c0-4.804-1.369-9.494-3.959-13.565
					c-0.741-1.164-2.286-1.508-3.452-0.767c-1.165,0.741-1.508,2.287-0.767,3.452c2.079,3.267,3.178,7.029,3.178,10.88
					c0,3.568-0.956,7.095-2.763,10.198c-0.451,0.773-0.453,1.729-0.007,2.504c0.446,0.775,1.272,1.254,2.167,1.254h58.28
					c0.895,0,1.722-0.479,2.168-1.254c0.445-0.776,0.442-1.731-0.008-2.504c-1.808-3.103-2.763-6.629-2.763-10.198
					c0-3.851,1.098-7.613,3.176-10.878C165.979,78.984,165.636,77.438,164.471,76.697z"/>
			</g>
		</g>
		<g>
			<g>
				<path d="M105.643,100.323c-1.192-0.695-2.723-0.292-3.418,0.902c-1.88,3.229-4.59,5.884-7.839,7.68
					c-1.831,1.012-3.443,2.34-4.793,3.947c-0.888,1.057-0.751,2.634,0.306,3.522c0.468,0.394,1.039,0.586,1.606,0.586
					c0.713,0,1.421-0.303,1.916-0.892c0.954-1.135,2.093-2.073,3.384-2.788c4.038-2.232,7.406-5.531,9.741-9.54
					C107.24,102.548,106.836,101.018,105.643,100.323z"/>
			</g>
		</g>
		<g>
			<g>
				<path d="M177.457,112.853c-1.348-1.605-2.961-2.934-4.793-3.948c-3.248-1.795-5.959-4.451-7.839-7.679
					c-0.694-1.194-2.228-1.596-3.418-0.902c-1.193,0.694-1.598,2.225-0.902,3.418c2.334,4.009,5.702,7.307,9.739,9.539
					c1.293,0.716,2.432,1.654,3.385,2.788c0.494,0.589,1.202,0.892,1.915,0.892c0.567,0,1.139-0.192,1.606-0.585
					C178.208,115.487,178.346,113.91,177.457,112.853z"/>
			</g>
		</g>
		<g>
			<g>
				<g>
					<g>
						<path d="M133.525,147.602c-18.668,0-33.856,15.188-33.856,33.856s15.188,33.856,33.856,33.856
							c18.668,0,33.855-15.188,33.855-33.856S152.193,147.602,133.525,147.602z M133.525,210.314
							c-15.912,0-28.856-12.945-28.856-28.856s12.945-28.856,28.856-28.856c15.911,0,28.855,12.945,28.855,28.856
							S149.437,210.314,133.525,210.314z"/>
					</g>
				</g>
			</g>
		</g>
		<g>
			<g>
				<g>
					<g>
						<path d="M144.841,180.033l-6.942-13.451c-0.849-1.643-2.524-2.664-4.373-2.664c-0.001,0-0.001,0-0.002,0
							c-1.849,0-3.523,1.021-4.371,2.665l-6.943,13.451c-2.054,3.98-1.89,8.64,0.441,12.465c2.33,3.825,6.396,6.109,10.875,6.109
							s8.544-2.284,10.875-6.109C146.73,188.673,146.896,184.013,144.841,180.033z M140.13,189.897
							c-1.415,2.323-3.884,3.71-6.604,3.71s-5.19-1.387-6.605-3.71c-1.416-2.323-1.516-5.153-0.268-7.571l6.873-13.314l6.872,13.314
							C141.646,184.744,141.545,187.574,140.13,189.897z"/>
					</g>
				</g>
			</g>
		</g>
	</g>
</g>
<g id="Layer_19">
</g>
<g id="Layer_20">
</g>
<g id="Layer_21">
</g>
<g id="Layer_22">
</g>
<g id="Layer_23">
</g>
<g id="Layer_24">
</g>
<g id="Layer_25">
</g>
<g id="Layer_26">
</g>
<g id="Layer_27">
</g>
<g id="Layer_28">
</g>
<g id="Layer_29">
</g>
<g id="Layer_30">
</g>
<g id="Layer_31">
</g>
<g id="Layer_32">
</g>
<g id="Layer_33">
</g>
<g id="Layer_34">
</g>
<g id="Layer_35">
</g>
<g id="Layer_36">
</g>
<g id="Layer_37">
</g>
<g id="Layer_38">
</g>
<g id="Layer_39">
</g>
<g id="Layer_40">
</g>
<g id="Layer_41">
</g>
<g id="Layer_42">
</g>
<g id="Layer_43">
</g>
<g id="Layer_44">
</g>
<g id="Layer_45">
</g>
<g id="Layer_46">
</g>
<g id="Layer_47">
</g>
<g id="Layer_48">
</g>
<g id="Layer_49">
</g>
<g id="Layer_50">
</g>
<g id="Layer_51">
</g>
<g id="Layer_52">
</g>
<g id="Layer_53">
</g>
<g id="Layer_54">
</g>
<g id="Layer_55">
</g>
<g id="Layer_56">
</g>
<g id="Layer_57">
</g>
<g id="Layer_58">
</g>
<g id="Layer_59">
</g>
<g id="Layer_60">
</g>
<g id="Layer_61">
</g>
<g id="Layer_62">
</g>
<g id="Layer_63">
</g>
<g id="Layer_64">
</g>
<g id="Layer_65">
</g>
<g id="Layer_66">
</g>
<g id="Layer_67">
</g>
<g id="Layer_68">
</g>
<g id="Layer_69">
</g>
<g id="Layer_70">
</g>
<g id="Layer_71">
</g>
<g id="Layer_72">
</g>
<g id="Layer_73">
</g>
<g id="Layer_74">
</g>
<g id="Layer_75">
</g>
</svg>
